# xmcd
#
# Track frame offsets:
#	150
#	17077
#	33609
#	51799
#	72164
#	92209
#	112655
#	128250
#	146677
#	164076
#	180364
#	196335
#	212687
#
# Disc length: 3064 seconds
# Revision: 0
# Processed by: cddbd v1.5.2PL0 Copyright (c) Steve Scherf et al.
# Submitted via: dBpowerAMP V12.0
#
DISCID=ae0bf60d
DTITLE=Various Artist - Fantasy Ride
DYEAR=2009
DGENRE=R&B
TTITLE0=Ciara - Ciara To The Stage
TTITLE1=Ciara featuring Justin Timberlake - Love Sex Magic
TTITLE2=Ciara featuring Ludacris - High Price
TTITLE3=Ciara featuring Chris Brown - Turntables
TTITLE4=Ciara - Like A Surgeon
TTITLE5=Ciara featuring Young Jeezy - Never Ever
TTITLE6=Ciara featuring The-Dream - Lover's Thing
TTITLE7=Ciara featuring Missy Elliott - Work
TTITLE8=Ciara - Pucker Up
TTITLE9=Ciara - G Is For Girl
TTITLE10=Ciara - Keep Dancin' On Me
TTITLE11=Ciara - What Your Name Is
TTITLE12=Ciara - I Don't Remember
EXTD=
EXTT0=
EXTT1=
EXTT2=
EXTT3=
EXTT4=
EXTT5=
EXTT6=
EXTT7=
EXTT8=
EXTT9=
EXTT10=
EXTT11=
EXTT12=
PLAYORDER=
